700 0 1 0           
30 Autodesk Translation Framework 20 ASM 226.5.1.65535 NT 24 Tue Jan 19 19:54:23 2021 
1 9.999999999999999547e-07 1.000000000000000036e-10 
body $1 -1 $-1 $2 $-1 $3 #
rgb_color-st-attrib $-1 -1 $-1 $-1 $0 0.7686274509803922017 0.2078431372549019718 0.152941176470588247 #
lump $-1 -1 $-1 $-1 $4 $0 #
transform $-1 -1 1 0 0 0 1 0 0 0 1 0 0 0 1 no_rotate no_reflect no_shear #
shell $-1 -1 $-1 $-1 $-1 $5 $-1 $2 #
face $6 -1 $-1 $7 $8 $4 $-1 $9 forward single #
DXID-attrib $-1 -1 $-1 $-1 $5 @10 ASM ENTITY @1 0 #
face $10 -1 $-1 $11 $12 $4 $-1 $13 forward single #
loop $-1 -1 $-1 $14 $15 $5 #
plane-surface $-1 -1 $-1 25.04803394430504682 16.01997922798627982 23.07863686327486619 0 0 1 -10 0 0 forward_v I I I I #
DXID-attrib $-1 -1 $-1 $-1 $7 @10 ASM ENTITY @1 1 #
face $16 -1 $-1 $17 $18 $4 $-1 $19 forward single #
loop $-1 -1 $-1 $-1 $20 $7 #
plane-surface $-1 -1 $-1 24.26231957858571064 23.14497915348045609 14.57863686327486619 0 0.7071067811865466846 -0.7071067811865483499 -10 0 0 forward_v I I I I #
loop $-1 -1 $-1 $-1 $21 $5 #
coedge $-1 -1 $-1 $22 $23 $24 $25 forward $8 $-1 #
DXID-attrib $-1 -1 $-1 $-1 $11 @10 ASM ENTITY @1 2 #
face $26 -1 $-1 $27 $28 $4 $-1 $29 forward single #
loop $-1 -1 $-1 $-1 $30 $11 #
plane-surface $-1 -1 $-1 23.47660521286637447 23.64497915348045964 18.07863686327486619 0 1 0 0 0 10 forward_v I I I I #
coedge $-1 -1 $-1 $31 $32 $33 $34 forward $12 $-1 #
coedge $-1 -1 $-1 $21 $21 $35 $36 forward $14 $-1 #
coedge $-1 -1 $-1 $37 $15 $38 $39 forward $8 $-1 #
coedge $-1 -1 $-1 $15 $40 $41 $42 forward $8 $-1 #
coedge $-1 -1 $-1 $43 $44 $15 $25 reversed $45 $-1 #
edge $-1 -1 $-1 $46 0.1306884884744752839 $47 0.2721098447117847874 $24 $48 forward @7 unknown #
DXID-attrib $-1 -1 $-1 $-1 $17 @10 ASM ENTITY @1 3 #
face $49 -1 $-1 $50 $51 $4 $-1 $52 forward single #
loop $-1 -1 $-1 $-1 $33 $17 #
plane-surface $-1 -1 $-1 22.97660521286637092 23.14497915348045964 18.07863686327486619 -0.7071067811865475727 0.7071067811865475727 0 0 0 10 forward_v I I I I #
coedge $-1 -1 $-1 $53 $54 $31 $55 reversed $18 $-1 #
coedge $-1 -1 $-1 $56 $20 $30 $55 forward $12 $-1 #
coedge $-1 -1 $-1 $20 $56 $57 $58 forward $12 $-1 #
coedge $-1 -1 $-1 $59 $60 $20 $34 reversed $28 $-1 #
edge $-1 -1 $-1 $61 -0.2247542142440791257 $62 -0.05154913348719188104 $33 $63 forward @7 unknown #
coedge $-1 -1 $-1 $35 $35 $21 $36 reversed $64 $-1 #
edge $-1 -1 $-1 $65 -3.141592653589793116 $65 3.141592653589793116 $35 $66 forward @7 unknown #
coedge $-1 -1 $-1 $67 $22 $68 $69 forward $8 $-1 #
coedge $-1 -1 $-1 $70 $71 $22 $39 reversed $72 $-1 #
edge $-1 -1 $-1 $47 0.05624999627470872454 $73 0.3062499962747091686 $38 $74 forward @7 unknown #
coedge $-1 -1 $-1 $23 $75 $76 $77 forward $8 $-1 #
coedge $-1 -1 $-1 $78 $79 $23 $42 reversed $80 $-1 #
edge $-1 -1 $-1 $81 -0.07857143657193343955 $46 0.2357143097158012068 $41 $82 forward @7 unknown #
coedge $-1 -1 $-1 $83 $24 $79 $84 forward $45 $-1 #
coedge $-1 -1 $-1 $24 $83 $70 $85 forward $45 $-1 #
loop $-1 -1 $-1 $-1 $43 $86 #
vertex $-1 -1 $-1 $25 $87 #
vertex $-1 -1 $-1 $25 $88 #
straight-curve $-1 -1 $-1 25.69535551151050257 18.2208719892472466 23.07863686327486619 7.071067811865483499 7.071067811865466624 0 I I #
DXID-attrib $-1 -1 $-1 $-1 $27 @10 ASM ENTITY @1 4 #
face $89 -1 $-1 $90 $91 $4 $-1 $92 forward single #
loop $-1 -1 $-1 $-1 $93 $27 #
cone-surface $-1 -1 $-1 25.04803394430504682 13.6449793024920929 18.07863686327486619 0 0 -1 -3.131672726486702807 4.521352224078459159 0 1 I I 0 1 5.499999999999989342 forward I I I I #
coedge $-1 -1 $-1 $94 $30 $60 $95 reversed $18 $-1 #
coedge $-1 -1 $-1 $30 $94 $96 $97 reversed $18 $-1 #
edge $-1 -1 $-1 $62 -0.07857143657193432773 $98 0.2357143097158012068 $30 $99 forward @7 unknown #
coedge $-1 -1 $-1 $32 $31 $100 $101 forward $12 $-1 #
coedge $-1 -1 $-1 $102 $103 $32 $58 reversed $104 $-1 #
edge $-1 -1 $-1 $105 -0.3357143097158008516 $61 0.1785714365719339725 $57 $106 forward @7 unknown #
coedge $-1 -1 $-1 $107 $33 $108 $109 forward $28 $-1 #
coedge $-1 -1 $-1 $33 $107 $53 $95 forward $28 $-1 #
vertex $-1 -1 $-1 $34 $110 #
vertex $-1 -1 $-1 $34 $111 #
straight-curve $-1 -1 $-1 23.77422427381958769 23.94259821443367997 15.37625592422809007 5.77350269189626264 5.77350269189626264 5.773502691896248429 I I #
loop $-1 -1 $-1 $112 $35 $113 #
vertex $-1 -1 $-1 $36 $114 #
ellipse-curve $-1 -1 $-1 25.04803394430504682 21.14497915348045964 23.07863686327486619 -0 -0 -1 -1.049999999999999822 0 0 1 I I #
coedge $-1 -1 $-1 $115 $37 $94 $116 forward $8 $-1 #
coedge $-1 -1 $-1 $117 $96 $37 $69 reversed $118 $-1 #
edge $-1 -1 $-1 $73 0.1079600449076277557 $119 0.2493814011449367596 $68 $120 forward @7 unknown #
coedge $-1 -1 $-1 $121 $38 $44 $85 reversed $72 $-1 #
coedge $-1 -1 $-1 $38 $122 $117 $123 reversed $72 $-1 #
loop $-1 -1 $-1 $-1 $70 $124 #
vertex $-1 -1 $-1 $39 $125 #
straight-curve $-1 -1 $-1 27.61946267574371916 19.58247919073336973 23.07863686327486619 0 10 0 I I #
coedge $-1 -1 $-1 $40 $115 $126 $127 forward $8 $-1 #
coedge $-1 -1 $-1 $128 $129 $40 $77 reversed $130 $-1 #
edge $-1 -1 $-1 $131 -0.2721098447117847874 $81 -0.1306884884744752839 $76 $132 forward @7 unknown #
coedge $-1 -1 $-1 $133 $41 $129 $134 reversed $80 $-1 #
coedge $-1 -1 $-1 $41 $135 $43 $84 reversed $80 $-1 #
loop $-1 -1 $-1 $-1 $133 $136 #
vertex $-1 -1 $-1 $77 $137 #
straight-curve $-1 -1 $-1 24.26231957858570709 19.14497915348045964 23.07863686327486619 10 0 0 I I #
coedge $-1 -1 $-1 $44 $43 $138 $139 forward $45 $-1 #
edge $-1 -1 $-1 $46 -0.5 $140 0 $43 $141 forward @7 unknown #
edge $-1 -1 $-1 $142 -0.2000000000000001776 $47 0.2999999999999998224 $44 $143 forward @7 unknown #
face $144 -1 $-1 $124 $45 $4 $-1 $145 forward single #
point $-1 -1 $-1 26.61946267574371916 19.14497915348045964 23.07863686327486619 #
point $-1 -1 $-1 27.61946267574371916 20.14497915348045609 23.07863686327486619 #
DXID-attrib $-1 -1 $-1 $-1 $50 @10 ASM ENTITY @1 5 #
face $146 -1 $-1 $147 $148 $4 $-1 $149 forward single #
loop $-1 -1 $-1 $-1 $150 $50 #
plane-surface $-1 -1 $-1 29.81117366511945121 10.89497930249209645 18.07863686327486619 -0.5000000000000033307 -0.8660254037844367092 -0 -8.660254037844367758 5.000000000000033751 0 forward_v I I I I #
coedge $-1 -1 $-1 $151 $152 $153 $154 reversed $51 $-1 #
coedge $-1 -1 $-1 $54 $53 $67 $116 reversed $18 $-1 #
edge $-1 -1 $-1 $155 -0.5 $62 0.3000000000000000444 $53 $156 forward @7 unknown #
coedge $-1 -1 $-1 $68 $100 $54 $97 forward $118 $-1 #
edge $-1 -1 $-1 $98 -0.500000000000000222 $119 0.2999999999999998224 $96 $157 forward @7 unknown #
vertex $-1 -1 $-1 $55 $158 #
straight-curve $-1 -1 $-1 24.26231957858571064 23.64497915348045964 15.07863686327486619 10 0 0 F -0.5814295634280655101 F 0.7385724365719328333 #
coedge $-1 -1 $-1 $96 $117 $56 $101 reversed $118 $-1 #
edge $-1 -1 $-1 $98 0.09691237354261339476 $105 0.2701174542995006256 $100 $159 forward @7 unknown #
coedge $-1 -1 $-1 $160 $57 $122 $161 reversed $104 $-1 #
coedge $-1 -1 $-1 $57 $162 $163 $164 reversed $104 $-1 #
loop $-1 -1 $-1 $165 $57 $166 #
vertex $-1 -1 $-1 $101 $167 #
straight-curve $-1 -1 $-1 24.26231957858571064 22.64497915348045609 14.07863686327486619 -10 0 0 F -0.7385724365719328333 F 0.5814295634280655101 #
coedge $-1 -1 $-1 $60 $59 $115 $168 reversed $28 $-1 #
coedge $-1 -1 $-1 $163 $126 $59 $109 reversed $169 $-1 #
edge $-1 -1 $-1 $61 -0.3999999999999999112 $170 0.5 $108 $171 forward @7 unknown #
point $-1 -1 $-1 22.47660521286637092 22.6449791534804632 14.07863686327486619 #
point $-1 -1 $-1 23.47660521286636737 23.64497915348045964 15.07863686327486619 #
loop $-1 -1 $-1 $-1 $172 $113 #
face $173 -1 $-1 $174 $64 $4 $-1 $175 reversed single #
point $-1 -1 $-1 26.09803394430504397 21.14497915348045964 23.07863686327486619 #
coedge $-1 -1 $-1 $75 $67 $107 $168 forward $8 $-1 #
edge $-1 -1 $-1 $119 -0.2357143097158016509 $155 0.07857143657193388364 $94 $176 forward @7 unknown #
coedge $-1 -1 $-1 $100 $68 $71 $123 forward $118 $-1 #
loop $-1 -1 $-1 $-1 $100 $177 #
vertex $-1 -1 $-1 $69 $178 #
straight-curve $-1 -1 $-1 28.38285547425759603 21.88158635496658633 23.07863686327486619 -7.071067811865475505 7.071067811865475505 0 I I #
coedge $-1 -1 $-1 $179 $70 $180 $181 reversed $72 $-1 #
coedge $-1 -1 $-1 $71 $179 $102 $161 forward $72 $-1 #
edge $-1 -1 $-1 $73 -0.5 $105 0.3999999999999999112 $71 $182 forward @7 unknown #
face $183 -1 $-1 $177 $72 $4 $-1 $184 forward single #
point $-1 -1 $-1 27.61946267574371916 22.6449791534804632 23.07863686327486619 #
coedge $-1 -1 $-1 $108 $185 $75 $127 reversed $169 $-1 #
edge $-1 -1 $-1 $170 -0.5062499962747093463 $131 -0.2562499962747089022 $126 $186 forward @7 unknown #
coedge $-1 -1 $-1 $187 $76 $185 $188 forward $130 $-1 #
coedge $-1 -1 $-1 $76 $187 $78 $134 forward $130 $-1 #
loop $-1 -1 $-1 $-1 $128 $174 #
vertex $-1 -1 $-1 $127 $189 #
straight-curve $-1 -1 $-1 24.40071237709958751 18.2208719892472466 23.07863686327486619 7.071067811865483499 -7.071067811865466624 0 I I #
coedge $-1 -1 $-1 $135 $78 $190 $191 forward $80 $-1 #
edge $-1 -1 $-1 $192 0 $81 0.5 $129 $193 forward @7 unknown #
coedge $-1 -1 $-1 $79 $133 $194 $195 forward $80 $-1 #
face $196 -1 $-1 $113 $80 $4 $-1 $197 forward single #
point $-1 -1 $-1 23.47660521286637447 19.14497915348045964 23.07863686327486619 #
coedge $-1 -1 $-1 $194 $180 $83 $139 reversed $198 $-1 #
edge $-1 -1 $-1 $140 0.1218496537096436239 $142 0.2632710099469530718 $83 $199 forward @7 unknown #
vertex $-1 -1 $-1 $195 $200 #
straight-curve $-1 -1 $-1 26.61946267574371916 19.14497915348045964 18.07863686327486619 0 0 -10 F -0.660001000000000726 F 0.3100010000000001931 #
vertex $-1 -1 $-1 $139 $201 #
straight-curve $-1 -1 $-1 27.61946267574371916 20.14497915348045609 20.07863686327486619 0 0 10 I I #
DXID-attrib $-1 -1 $-1 $-1 $86 @10 ASM ENTITY @2 16 #
plane-surface $-1 -1 $-1 27.11946267574371916 19.64497915348045964 18.07863686327486619 0.7071067811865466846 -0.7071067811865483499 0 0 0 -10 forward_v I I I I #
DXID-attrib $-1 -1 $-1 $-1 $90 @10 ASM ENTITY @1 6 #
face $202 -1 $-1 $203 $204 $4 $-1 $205 forward single #
loop $-1 -1 $-1 $-1 $206 $90 #
cone-surface $-1 -1 $-1 25.04803245418892743 13.64497915348047918 18.07863686327486619 0 0 -1 3.46410205219062739 -1.999999243002033023 0 1 I I 0 -1 4.000000000000002665 forward I I I I #
coedge $-1 -1 $-1 $207 $208 $209 $210 forward $91 $-1 #
coedge $-1 -1 $-1 $211 $93 $212 $213 forward $51 $-1 #
coedge $214 -1 $-1 $93 $211 $215 $216 reversed $51 $-1 #
coedge $-1 -1 $-1 $217 $218 $93 $154 forward $219 $-1 #
edge $-1 -1 $-1 $220 0 $221 0.3999999999999999112 $153 $222 forward @7 unknown #
vertex $-1 -1 $-1 $116 $223 #
straight-curve $-1 -1 $-1 23.47660521286636737 23.64497915348045964 18.07863686327486619 0 0 -10 F -0.6600009999999989496 F 0.8100009999999988608 #
straight-curve $-1 -1 $-1 26.61946267574372271 23.64497915348045964 20.07863686327486619 0 0 10 I I #
point $-1 -1 $-1 26.61946267574372271 23.64497915348045964 15.07863686327486619 #
straight-curve $-1 -1 $-1 26.05993882621739033 24.20450300300679203 15.63816071280120212 5.77350269189626264 -5.77350269189626264 -5.773502691896248429 I I #
coedge $224 -1 $-1 $225 $102 $226 $227 reversed $104 $-1 #
edge $-1 -1 $-1 $228 -0.04375000372529114223 $105 0.3062499962747091686 $122 $229 forward @7 unknown #
coedge $230 -1 $-1 $103 $212 $218 $231 forward $104 $-1 #
coedge $-1 -1 $-1 $232 $108 $103 $164 forward $169 $-1 #
edge $-1 -1 $-1 $61 -0.5062499962747093463 $233 -0.1562499962747090354 $163 $234 forward @7 unknown #
loop $-1 -1 $-1 $-1 $235 $166 #
face $236 -1 $-1 $86 $104 $4 $-1 $237 reversed single #
point $-1 -1 $-1 27.61946267574371916 22.6449791534804632 14.07863686327486619 #
edge $-1 -1 $-1 $155 -0.2493814011449367596 $170 -0.1079600449076277557 $107 $238 forward @7 unknown #
loop $-1 -1 $-1 $-1 $108 $239 #
vertex $-1 -1 $-1 $168 $240 #
straight-curve $-1 -1 $-1 22.47660521286637092 22.6449791534804632 18.07863686327486619 0 0 10 F -0.8100009999999988608 F 0.6600009999999989496 #
coedge $-1 -1 $-1 $172 $172 $235 $241 forward $112 $-1 #
DXID-attrib $-1 -1 $-1 $-1 $113 @10 ASM ENTITY @2 12 #
face $242 -1 $-1 $239 $130 $4 $-1 $243 forward single #
cone-surface $-1 -1 $-1 25.04803394430504682 21.14497915348045964 22.07863686327486619 0 0 -1 -1.049999999999999822 0 0 1 I I 0 1 1.049999999999999822 forward I I I I #
straight-curve $-1 -1 $-1 24.26231957858570709 23.64497915348045964 23.07863686327486619 -10 -0 -0 I I #
face $244 -1 $-1 $245 $118 $4 $-1 $246 forward single #
point $-1 -1 $-1 26.61946267574372271 23.64497915348045964 23.07863686327486619 #
coedge $-1 -1 $-1 $122 $121 $247 $248 forward $72 $-1 #
coedge $-1 -1 $-1 $138 $249 $121 $181 forward $198 $-1 #
edge $-1 -1 $-1 $250 -0.05625000372529109782 $142 0.04374999627470876895 $121 $251 forward @7 unknown #
straight-curve $-1 -1 $-1 27.61946267574371916 22.6449791534804632 18.07863686327486619 0 0 -10 F -0.6600009999999989496 F 0.8100009999999988608 #
DXID-attrib $-1 -1 $-1 $-1 $124 @10 ASM ENTITY @2 17 #
plane-surface $-1 -1 $-1 27.61946267574371916 23.14497915348045964 18.07863686327486619 1 0 0 0 0 -10 forward_v I I I I #
coedge $-1 -1 $-1 $126 $252 $128 $188 reversed $169 $-1 #
straight-curve $-1 -1 $-1 22.47660521286637092 17.58247919073336973 23.07863686327486619 -0 -10 -0 I I #
coedge $-1 -1 $-1 $129 $128 $253 $254 forward $130 $-1 #
edge $-1 -1 $-1 $131 -0.5 $255 -0 $185 $256 forward @7 unknown #
point $-1 -1 $-1 22.47660521286637092 20.14497915348045609 23.07863686327486619 #
coedge $-1 -1 $-1 $253 $194 $133 $191 reversed $198 $-1 #
edge $-1 -1 $-1 $192 -0.07857143657193343955 $257 0.07857143657193343955 $133 $258 forward @7 unknown #
vertex $-1 -1 $-1 $191 $259 #
straight-curve $-1 -1 $-1 23.47660521286637447 19.14497915348045964 18.07863686327486619 0 0 10 F -0.3100010000000001931 F 0.660001000000000726 #
coedge $-1 -1 $-1 $190 $138 $135 $195 reversed $198 $-1 #
edge $-1 -1 $-1 $257 0.07864535381931503366 $140 0.2357143097158012068 $135 $260 forward @7 unknown #
DXID-attrib $-1 -1 $-1 $-1 $136 @10 ASM ENTITY @2 11 #
plane-surface $-1 -1 $-1 23.47660521286637447 19.14497915348045964 18.07863686327486619 0 -1 0 10 0 0 forward_v I I I I #
loop $-1 -1 $-1 $-1 $253 $245 #
straight-curve $-1 -1 $-1 25.75785551151049901 18.2833719892472466 18.07863686327486619 7.071067811865483499 7.071067811865466624 0 I I #
point $-1 -1 $-1 26.61946267574371916 19.14497915348045964 18.07863686327486619 #
point $-1 -1 $-1 27.61946267574371916 20.14497915348045609 18.07863686327486619 #
DXID-attrib $-1 -1 $-1 $-1 $147 @10 ASM ENTITY @1 7 #
face $261 -1 $-1 $262 $263 $4 $-1 $52 forward single #
loop $-1 -1 $-1 $-1 $264 $147 #
plane-surface $-1 -1 $-1 21.58393114705631888 11.64497862000000694 18.07863686327486619 0.5000000000000017764 -0.8660254037844375974 0 -8.66025403784437664 -5.000000000000017764 -0 forward_v I I I I #
coedge $-1 -1 $-1 $265 $266 $267 $268 forward $148 $-1 #
coedge $-1 -1 $-1 $269 $150 $270 $271 reversed $91 $-1 #
coedge $-1 -1 $-1 $150 $269 $265 $272 forward $91 $-1 #
coedge $-1 -1 $-1 $267 $225 $150 $210 reversed $104 $-1 #
edge $-1 -1 $-1 $273 0.2343748765400850975 $274 0.3843749981373543179 $150 $275 forward @7 unknown #
coedge $-1 -1 $-1 $152 $151 $276 $277 reversed $51 $-1 #
coedge $-1 -1 $-1 $162 $278 $151 $213 reversed $104 $-1 #
edge $-1 -1 $-1 $220 -0.01353945520801142118 $279 1.488625337195582432 $151 $280 forward @7 unknown #
ATTRIB_CUSTOM-attrib $-1 -1 $281 $-1 $152 @17 sketch_attrib_def 1 1 3 @14 2932 0 0 0 1 1 #
coedge $282 -1 $-1 $283 $284 $152 $216 forward $198 $-1 #
edge $-1 -1 $-1 $221 -0.01353945520801142118 $285 1.488625337195582432 $215 $286 forward @7 unknown #
coedge $-1 -1 $-1 $287 $153 $284 $288 reversed $219 $-1 #
coedge $289 -1 $-1 $153 $287 $162 $231 reversed $219 $-1 #
loop $-1 -1 $-1 $-1 $218 $262 #
vertex $-1 -1 $-1 $154 $290 #
vertex $-1 -1 $-1 $154 $291 #
straight-curve $-1 -1 $-1 21.97786303321318613 18.20831696002799305 14.07863686327486619 0 0 10 F 0 F 0.3999999999999999112 #
point $-1 -1 $-1 23.47660521286636737 23.64497915348045964 23.07863686327486619 #
ATTRIB_CUSTOM-attrib $-1 -1 $-1 $-1 $160 @17 sketch_attrib_def 1 1 3 @14 3111 0 1 0 2 2 #
coedge $-1 -1 $-1 $209 $160 $292 $293 reversed $104 $-1 #
coedge $294 -1 $-1 $247 $295 $160 $227 forward $296 $-1 #
edge $-1 -1 $-1 $297 0.5169924693645934211 $228 0.6231093778386149751 $160 $298 forward @7 unknown #
vertex $-1 -1 $-1 $227 $299 #
straight-curve $-1 -1 $-1 27.61946267574371916 19.58247919073336973 14.07863686327486619 0 10 0 I I #
ATTRIB_CUSTOM-attrib $-1 -1 $-1 $-1 $162 @17 sketch_attrib_def 1 1 3 @14 3113 0 0 0 2 2 #
edge $-1 -1 $-1 $220 0.51699246936459331 $233 0.6231093778386150861 $162 $300 forward @7 unknown #
coedge $-1 -1 $-1 $252 $163 $287 $301 forward $169 $-1 #
vertex $-1 -1 $-1 $231 $302 #
straight-curve $-1 -1 $-1 22.47660521286637092 17.58247919073336973 14.07863686327486619 0 -10 0 I I #
coedge $-1 -1 $-1 $235 $235 $172 $241 reversed $165 $-1 #
DXID-attrib $-1 -1 $-1 $-1 $166 @10 ASM ENTITY @2 15 #
plane-surface $-1 -1 $-1 25.04803394430505037 16.01997922798627982 14.07863686327486619 0 0 1 -10 0 0 forward_v I I I I #
straight-curve $-1 -1 $-1 21.71321241435249405 21.88158635496658633 23.07863686327486619 -7.071067811865475505 -7.071067811865475505 -0 I I #
face $303 -1 $-1 $166 $169 $4 $-1 $304 forward single #
point $-1 -1 $-1 22.47660521286637092 22.6449791534804632 23.07863686327486619 #
edge $-1 -1 $-1 $305 -3.141592653589793116 $305 3.141592653589793116 $172 $306 forward @7 unknown #
DXID-attrib $-1 -1 $-1 $-1 $174 @10 ASM ENTITY @2 13 #
plane-surface $-1 -1 $-1 22.97660521286637447 19.64497915348045964 18.07863686327486619 -0.7071067811865466846 -0.7071067811865483499 0 0 0 10 forward_v I I I I #
DXID-attrib $-1 -1 $-1 $-1 $177 @10 ASM ENTITY @2 18 #
face $307 -1 $-1 $-1 $198 $4 $-1 $308 forward single #
plane-surface $-1 -1 $-1 27.11946267574372271 23.14497915348045964 18.07863686327486619 0.7071067811865475727 0.7071067811865475727 0 0 0 -10 forward_v I I I I #
coedge $-1 -1 $-1 $309 $226 $179 $248 reversed $296 $-1 #
edge $-1 -1 $-1 $250 0 $228 0.3999999999999999112 $179 $310 forward @7 unknown #
coedge $-1 -1 $-1 $180 $311 $309 $312 forward $198 $-1 #
vertex $-1 -1 $-1 $248 $313 #
straight-curve $-1 -1 $-1 27.61946267574371916 19.70747919073336973 18.07863686327486619 0 10 0 I I #
coedge $-1 -1 $-1 $185 $232 $314 $315 reversed $169 $-1 #
coedge $-1 -1 $-1 $314 $190 $187 $254 reversed $198 $-1 #
edge $-1 -1 $-1 $255 -0.2632710099469530718 $192 -0.1218496537096436239 $187 $316 forward @7 unknown #
vertex $-1 -1 $-1 $188 $317 #
straight-curve $-1 -1 $-1 22.47660521286637092 20.14497915348045609 18.07863686327486619 -0 -0 -10 F -0.660001000000000726 F 0.3100010000000001931 #
tvertex-vertex $-1 -1 $-1 $191 $318 0.000369586246910635094 #
straight-curve $-1 -1 $-1 24.26231957858570709 19.14497915348045964 18.07863686327486619 10 0 0 I I #
point $-1 -1 $-1 23.47660521286637447 19.14497915348045964 18.07863686327486619 #
straight-curve $-1 -1 $-1 24.26231957858570709 19.14497915348045964 18.07863686327486619 10 0 0 I I #
DXID-attrib $-1 -1 $-1 $-1 $203 @10 ASM ENTITY @1 8 #
face $319 -1 $-1 $320 $219 $4 $-1 $321 forward single #
loop $-1 -1 $-1 $-1 $322 $203 #
coedge $-1 -1 $-1 $323 $276 $278 $324 forward $204 $-1 #
coedge $-1 -1 $-1 $325 $206 $208 $272 reversed $148 $-1 #
coedge $-1 -1 $-1 $206 $325 $323 $326 forward $148 $-1 #
coedge $-1 -1 $-1 $278 $209 $206 $268 reversed $104 $-1 #
edge $-1 -1 $-1 $327 2.094395166917118356 $273 6.283185307179585344 $206 $328 forward @7 unknown #
coedge $329 -1 $-1 $208 $207 $330 $331 reversed $91 $-1 #
coedge $-1 -1 $-1 $292 $332 $207 $271 forward $263 $-1 #
edge $-1 -1 $-1 $333 0 $274 0.3999999999999999112 $207 $334 forward @7 unknown #
edge $-1 -1 $-1 $335 0 $273 0.3999999999999999112 $208 $336 forward @7 unknown #
vertex $-1 -1 $-1 $210 $337 #
vertex $-1 -1 $-1 $210 $338 #
straight-curve $-1 -1 $-1 26.48238853545400673 12.81685429317888136 14.07863686327486619 8.660254037844367758 -5.000000000000033751 0 I I #
coedge $-1 -1 $-1 $264 $339 $211 $277 forward $204 $-1 #
edge $-1 -1 $-1 $285 0 $279 0.3999999999999999112 $276 $340 forward @7 unknown #
coedge $-1 -1 $-1 $212 $267 $264 $324 reversed $104 $-1 #
vertex $-1 -1 $-1 $213 $341 #
ellipse-curve $-1 -1 $-1 25.04803394430504682 13.6449793024920929 14.07863686327486619 0 0 1 -3.131672726486702807 4.521352224078459159 0 1 I I #
ATTRIB_CUSTOM-attrib $-1 -1 $342 $214 $152 @17 sketch_attrib_def 1 1 3 @14 2903 0 0 0 1 1 #
ATTRIB_CUSTOM-attrib $-1 -1 $343 $-1 $215 @17 sketch_attrib_def 1 1 3 @14 2903 0 0 0 1 1 #
coedge $344 -1 $-1 $345 $215 $339 $346 forward $198 $-1 #
coedge $-1 -1 $-1 $215 $314 $217 $288 forward $198 $-1 #
vertex $-1 -1 $-1 $277 $347 #
ellipse-curve $-1 -1 $-1 25.04803394430504682 13.6449793024920929 18.07863686327486619 0 0 1 -3.131672726486702807 4.521352224078459159 0 1 F -2.700164867590808981 F 1.488625337195582432 #
coedge $-1 -1 $-1 $218 $217 $232 $301 reversed $219 $-1 #
edge $-1 -1 $-1 $348 -0.6231093778386150861 $221 -0.51699246936459331 $217 $349 forward @7 unknown #
ATTRIB_CUSTOM-attrib $-1 -1 $-1 $-1 $218 @17 sketch_attrib_def 1 1 3 @14 3113 0 0 0 2 2 #
point $-1 -1 $-1 21.97786303321318613 18.20831696002799305 14.07863686327486619 #
point $-1 -1 $-1 21.97786303321318613 18.20831696002799305 18.07863686327486619 #
coedge $-1 -1 $-1 $322 $270 $225 $293 forward $263 $-1 #
edge $-1 -1 $-1 $274 -2.700164867590808981 $297 -1.19800007518721463 $292 $280 forward @7 unknown #
ATTRIB_CUSTOM-attrib $-1 -1 $-1 $-1 $226 @17 sketch_attrib_def 1 1 3 @14 3111 0 1 0 2 2 #
coedge $-1 -1 $-1 $226 $309 $322 $350 reversed $296 $-1 #
loop $-1 -1 $-1 $-1 $226 $320 #
vertex $-1 -1 $-1 $350 $351 #
straight-curve $-1 -1 $-1 30.54803394430503261 13.64497915348047918 14.07863686327486619 -4.699931300536146495 8.826700729618096375 0 F 0.516992469364593199 F 0.6231093778386149751 #
point $-1 -1 $-1 27.61946267574371916 19.14497915348045964 14.07863686327486619 #
straight-curve $-1 -1 $-1 19.54803394430505747 13.64497915348047918 14.07863686327486619 4.699931300536149159 8.826700729618094599 0 F 0.51699246936459331 F 0.6231093778386150861 #
edge $-1 -1 $-1 $233 -0.3999999999999999112 $348 0 $232 $352 forward @7 unknown #
point $-1 -1 $-1 22.47660521286637092 19.14497915348045964 14.07863686327486619 #
DXID-attrib $-1 -1 $-1 $-1 $239 @10 ASM ENTITY @2 14 #
plane-surface $-1 -1 $-1 22.47660521286637092 19.14497915348045964 18.07863686327486619 -1 0 0 0 0 10 forward_v I I I I #
vertex $-1 -1 $-1 $241 $353 #
ellipse-curve $-1 -1 $-1 25.04803394430504682 21.14497915348045964 14.07863686327486619 -0 -0 -1 -1.049999999999999822 0 0 1 I I #
DXID-attrib $-1 -1 $-1 $-1 $245 @10 ASM ENTITY @2 19 #
plane-surface $-1 -1 $-1 25.04803394430505037 16.01997922798627982 18.07863686327486619 0 0 1 -10 0 0 forward_v I I I I #
coedge $-1 -1 $-1 $295 $247 $249 $312 reversed $296 $-1 #
straight-curve $-1 -1 $-1 27.61946267574371916 19.14497915348045609 18.07863686327486619 0 0 -10 I I #
coedge $354 -1 $-1 $249 $330 $332 $355 forward $198 $-1 #
edge $-1 -1 $-1 $356 0.5169924693645934211 $250 0.6231093778386149751 $309 $357 forward @7 unknown #
point $-1 -1 $-1 27.61946267574371916 19.14497915348045964 18.07863686327486619 #
coedge $-1 -1 $-1 $284 $253 $252 $315 forward $198 $-1 #
edge $-1 -1 $-1 $255 -0.2437499962747087245 $348 -0.1437499962747088578 $252 $358 forward @7 unknown #
straight-curve $-1 -1 $-1 24.33821237709959462 18.2833719892472466 18.07863686327486619 7.071067811865483499 -7.071067811865466624 0 I I #
point $-1 -1 $-1 22.47660521286637092 20.14497915348045609 18.07863686327486619 #
point $-1 -1 $-1 25.04840353054195035 19.14497915348045964 18.07863686327486619 #
DXID-attrib $-1 -1 $-1 $-1 $262 @10 ASM ENTITY @1 9 #
face $359 -1 $-1 $136 $296 $4 $-1 $360 forward single #
plane-surface $-1 -1 $-1 22.47660521286637092 19.14497915348045964 14.07863686327486619 -0.8826700729618094377 0.469993130053614927 0 -4.699931300536149159 -8.826700729618094599 -0 forward_v I I I I #
coedge $-1 -1 $-1 $332 $292 $295 $350 forward $263 $-1 #
coedge $-1 -1 $-1 $339 $264 $266 $326 reversed $204 $-1 #
edge $-1 -1 $-1 $279 -0.4593749298881449894 $327 -0.3093750663865639794 $264 $361 forward @7 unknown #
coedge $362 -1 $-1 $266 $265 $345 $363 forward $148 $-1 #
edge $-1 -1 $-1 $364 0 $327 0.3999999999999999112 $266 $365 forward @7 unknown #
vertex $-1 -1 $-1 $268 $366 #
ellipse-curve $-1 -1 $-1 25.04803245418892743 13.64497915348047918 14.07863686327486619 -0 -0 -1 3.46410205219062739 -1.999999243002033023 0 1 I I #
ATTRIB_CUSTOM-attrib $-1 -1 $367 $-1 $269 @17 sketch_attrib_def 1 1 3 @14 2910 0 0 0 1 1 #
coedge $368 -1 $-1 $311 $345 $269 $331 forward $198 $-1 #
edge $-1 -1 $-1 $335 0 $333 0.1500001215972691648 $330 $369 forward @7 unknown #
coedge $370 -1 $-1 $270 $322 $311 $355 reversed $263 $-1 #
vertex $-1 -1 $-1 $271 $371 #
straight-curve $-1 -1 $-1 29.81117366511945121 10.89497930249209645 18.07863686327486619 0 0 -10 I I #
vertex $-1 -1 $-1 $331 $372 #
straight-curve $-1 -1 $-1 28.51213450637955305 11.64497991047844572 18.07863686327486619 0 0 -10 I I #
point $-1 -1 $-1 28.51213450637955305 11.64497991047844749 14.07863686327486619 #
point $-1 -1 $-1 29.81117366511945121 10.89497930249209645 14.07863686327486619 #
coedge $373 -1 $-1 $276 $323 $283 $346 reversed $204 $-1 #
straight-curve $-1 -1 $-1 20.28489422349064597 10.89497930249209823 18.07863686327486619 0 0 -10 I I #
point $-1 -1 $-1 20.28489422349064597 10.89497930249209823 14.07863686327486619 #
ATTRIB_CUSTOM-attrib $-1 -1 $374 $281 $152 @17 sketch_attrib_def 1 1 3 @14 3072 0 1 0 5 5 #
ATTRIB_CUSTOM-attrib $-1 -1 $375 $282 $215 @17 sketch_attrib_def 1 1 3 @14 2932 0 0 0 1 1 #
ATTRIB_CUSTOM-attrib $-1 -1 $376 $-1 $283 @17 sketch_attrib_def 1 1 3 @14 2933 0 0 0 1 1 #
coedge $377 -1 $-1 $330 $283 $325 $363 reversed $198 $-1 #
edge $-1 -1 $-1 $285 0 $364 0.1499998635015810933 $283 $378 forward @7 unknown #
point $-1 -1 $-1 20.28489422349064597 10.89497930249209823 18.07863686327486619 #
vertex $-1 -1 $-1 $288 $379 #
straight-curve $-1 -1 $-1 19.54803394430505747 13.64497915348047918 18.07863686327486619 -4.699931300536149159 -8.826700729618094599 -0 I I #
edge $-1 -1 $-1 $297 0 $356 0.3999999999999999112 $295 $380 forward @7 unknown #
point $-1 -1 $-1 28.11820485539690395 18.20831696002799305 14.07863686327486619 #
straight-curve $-1 -1 $-1 22.47660521286637092 19.14497915348045964 18.07863686327486619 0 0 10 I I #
point $-1 -1 $-1 26.09803394430504397 21.14497915348045964 14.07863686327486619 #
ATTRIB_CUSTOM-attrib $-1 -1 $381 $-1 $311 @17 sketch_attrib_def 1 1 3 @14 2912 0 0 0 1 1 #
edge $-1 -1 $-1 $333 -2.700164867590808981 $356 -1.19800007518721463 $311 $286 forward @7 unknown #
vertex $-1 -1 $-1 $350 $382 #
straight-curve $-1 -1 $-1 30.54803394430503261 13.64497915348047918 18.07863686327486619 -4.699931300536146495 8.826700729618096375 0 I I #
straight-curve $-1 -1 $-1 22.47660521286637092 17.70747919073336973 18.07863686327486619 0 -10 0 I I #
DXID-attrib $-1 -1 $-1 $-1 $320 @10 ASM ENTITY @2 10 #
plane-surface $-1 -1 $-1 28.11820485539690395 18.2083169600279966 14.07863686327486619 0.8826700729618095487 0.4699931300536146495 0 -4.699931300536146495 8.826700729618096375 0 forward_v I I I I #
straight-curve $-1 -1 $-1 24.26319781493893046 13.19185395193283306 14.07863686327486619 8.66025403784437664 5.000000000000017764 0 I I #
ATTRIB_CUSTOM-attrib $-1 -1 $383 $-1 $325 @17 sketch_attrib_def 1 1 3 @14 2908 0 1 0 1 1 #
edge $-1 -1 $-1 $335 0 $364 4.18879014026246832 $325 $384 forward @7 unknown #
vertex $-1 -1 $-1 $363 $385 #
straight-curve $-1 -1 $-1 21.58393114705631888 11.64497862000000694 18.07863686327486619 0 0 -10 I I #
point $-1 -1 $-1 21.58393114705631888 11.64497862000000694 14.07863686327486619 #
ATTRIB_CUSTOM-attrib $-1 -1 $-1 $329 $269 @17 sketch_attrib_def 1 1 3 @14 2925 0 0 0 1 1 #
ATTRIB_CUSTOM-attrib $-1 -1 $386 $-1 $330 @17 sketch_attrib_def 1 1 3 @14 2925 0 0 0 1 1 #
straight-curve $-1 -1 $-1 28.51213450637955305 11.64497991047844572 18.07863686327486619 8.660254037844367758 -5.000000000000033751 0 F 0 F 0.1500001215972691648 #
ATTRIB_CUSTOM-attrib $-1 -1 $387 $-1 $332 @17 sketch_attrib_def 1 1 3 @14 2928 0 0 0 1 1 #
point $-1 -1 $-1 29.81117366511945121 10.89497930249209645 18.07863686327486619 #
point $-1 -1 $-1 28.51213450637955305 11.64497991047844572 18.07863686327486619 #
ATTRIB_CUSTOM-attrib $-1 -1 $388 $-1 $339 @17 sketch_attrib_def 1 1 3 @14 2905 0 0 0 1 1 #
ATTRIB_CUSTOM-attrib $-1 -1 $389 $342 $152 @17 sketch_attrib_def 1 1 3 @14 2912 0 0 0 1 1 #
ATTRIB_CUSTOM-attrib $-1 -1 $390 $343 $215 @17 sketch_attrib_def 1 1 3 @14 2928 0 0 0 1 1 #
ATTRIB_CUSTOM-attrib $-1 -1 $-1 $344 $283 @17 sketch_attrib_def 1 1 3 @14 2905 0 0 0 1 1 #
ATTRIB_CUSTOM-attrib $-1 -1 $391 $-1 $345 @17 sketch_attrib_def 1 1 3 @14 2923 0 1 0 1 1 #
straight-curve $-1 -1 $-1 20.28489422349064597 10.89497930249209823 18.07863686327486619 8.66025403784437664 5.000000000000017764 0 F 0 F 0.1499998635015810933 #
point $-1 -1 $-1 22.47660521286637092 19.14497915348045964 18.07863686327486619 #
straight-curve $-1 -1 $-1 28.11820485539690395 18.20831696002799305 14.07863686327486619 0 0 10 F 0 F 0.3999999999999999112 #
ATTRIB_CUSTOM-attrib $-1 -1 $392 $354 $311 @17 sketch_attrib_def 1 1 3 @14 2928 0 0 0 1 1 #
point $-1 -1 $-1 28.11820485539690395 18.20831696002799305 18.07863686327486619 #
ATTRIB_CUSTOM-attrib $-1 -1 $-1 $362 $325 @17 sketch_attrib_def 1 1 3 @14 2923 0 1 0 1 1 #
ellipse-curve $-1 -1 $-1 25.04803245418892743 13.64497915348047918 18.07863686327486619 0 0 1 3.46410205219062739 -1.999999243002033023 0 1 F 0 F 4.18879014026246832 #
point $-1 -1 $-1 21.58393114705631888 11.64497862000000694 18.07863686327486619 #
ATTRIB_CUSTOM-attrib $-1 -1 $-1 $368 $330 @17 sketch_attrib_def 1 1 3 @14 2910 0 0 0 1 1 #
ATTRIB_CUSTOM-attrib $-1 -1 $393 $370 $332 @17 sketch_attrib_def 1 1 3 @14 2912 0 0 0 1 1 #
ATTRIB_CUSTOM-attrib $-1 -1 $-1 $373 $339 @17 sketch_attrib_def 1 1 3 @14 2933 0 0 0 1 1 #
ATTRIB_CUSTOM-attrib $-1 -1 $-1 $374 $152 @17 sketch_attrib_def 1 1 3 @14 2928 0 0 0 1 1 #
ATTRIB_CUSTOM-attrib $-1 -1 $-1 $375 $215 @17 sketch_attrib_def 1 1 3 @14 2912 0 0 0 1 1 #
ATTRIB_CUSTOM-attrib $-1 -1 $-1 $377 $345 @17 sketch_attrib_def 1 1 3 @14 2908 0 1 0 1 1 #
ATTRIB_CUSTOM-attrib $-1 -1 $394 $381 $311 @17 sketch_attrib_def 1 1 3 @14 2932 0 0 0 1 1 #
ATTRIB_CUSTOM-attrib $-1 -1 $395 $387 $332 @17 sketch_attrib_def 1 1 3 @14 3072 0 1 0 5 5 #
ATTRIB_CUSTOM-attrib $-1 -1 $-1 $392 $311 @17 sketch_attrib_def 1 1 3 @14 2903 0 0 0 1 1 #
ATTRIB_CUSTOM-attrib $-1 -1 $396 $393 $332 @17 sketch_attrib_def 1 1 3 @14 2903 0 0 0 1 1 #
ATTRIB_CUSTOM-attrib $-1 -1 $-1 $395 $332 @17 sketch_attrib_def 1 1 3 @14 2932 0 0 0 1 1 #
End-of-ACIS-data 